<?xml version="1.0" encoding="UTF-8"?>
<svg id="Layer_1" xmlns="http://www.w3.org/2000/svg" version="1.1" viewBox="0 0 1536 878.1">
  <!-- Generator: Adobe Illustrator 29.5.1, SVG Export Plug-In . SVG Version: 2.1.0 Build 141)  -->
  <defs>
    <style>
      .st0 {
        fill: #fff;
        stroke: #a8ff00;
        stroke-miterlimit: 10;
        stroke-width: 4px;
      }
    </style>
  </defs>
  <path class="st0" d="M602.5,169c12.8.9,26.1.6,38.9,1.4,35.9,2.2,72.3,5.1,108.1,8.4s49.3,2.8,61.7,9.1c20.1,10.3,15.3,36.6,4.2,52-20.1,28.1-58,51.7-91.8,58.4-14.6,2.9-32,6.6-42-7.2,39.4-1.4,86.7-23.5,109.8-56s18.7-31.9-5.8-28.6-72.6,43.7-101.2,56.2c-83.5,36.5-145.6,10.6-227.4-5.2-20.3-3.9-45,4.9-64.6,11.1-43.8,13.8-86.6,32.1-130,47.2,2.6,4.2,11,.5,13.2,6-37.7,15.5-88,17.9-119.5,45.7-42.9,37.9,16.9,64.4,42,86.5,12,10.6,21.4,21.4,29.7,35.2s23.8,57.4,51.3,37.3c25.5-18.6,25.8-66.3,30.3-94.6,8.5-53.9,25.2-118.1,85.1-134.1-32.8,25.7-48,67.3-53.9,107.7-6.2,42.7-3.8,143.3-64.6,150.4-49.5,5.8-50.2-44.1-76.7-73.2-5.2-5.7-24.4-22.9-30.7-25.8s-2.2-.9-3.5-.6c-20.8,48.5-51.6,91.5-84.1,132.7l38.8,15.2,70.4,39.5c-11.9-27.4-15.9-57.3-14.4-87.1l2.4-10.2c9.5,40,31.6,74.4,56,106.8,46.8,62.1,108.3,119.4,177.7,155.1,1.7-20,6.3-40.5,14.4-58.8,17-38.1,55.1-49.2,94.3-43.3.6,2.8-.3,1.9-1.5,2.7-5.7,3.6-15.8,5.7-22.9,9.5-42.9,23.7-71,79.2-42.9,124.7-4.8,3.5-55.3-20.8-63.3-25-73.1-39.2-137.1-98.6-205.4-145.3-45.5-31.2-93.9-56.1-150.5-57.9-1.1-.9,3.4-7,4.3-8.3,31.2-44.7,66.2-85.3,95.9-132.3,3.2-5,14.8-22.2,15.8-26.3s-8.6-8.7-11.6-11.4c-7.3-6.8-18-16.8-22.6-25.5-24.6-46.3,42.3-73.7,74.2-89.3-2.4-6.9-4.1-14.2-5.6-21.4-7.7-36.6-17.8-77.3-9.4-114.3,14.1-61.9,80.8-101.9,134.9-125.1-1.1-24.9,44.8-35.4,57.9-16,17.6.8,35.7-3.5,53.4-4.2,33.7-1.4,73.8,3.6,103.6,20.3,38.6,21.7,62.4,68.1,77.4,108.2l.2-.3ZM575.8,173.9c-15.7-44.3-45-90.9-93.1-104.3-32-8.9-68.5-9.8-101.4-7.3,38.3,28.2,57.4,73.9,71.2,118s9.6,31.8,11.7,47.8l111.6-54.1h0ZM446.2,238.8c-14-56-33.3-114.7-73.9-157.4-4.5-4.7-13.6-14.7-20.1-14.2-31.6,2.8-53,37.7-60.7,65.6-7.1,25.8-6.7,56-3.9,82.5,2.3,22.3,8,44.4,10.8,66.7,47.4-20,97.3-33,147.7-43.2h.1ZM303.2,81.5c-49.4,22.9-99.9,65.8-106.9,123.1-2.6,21.5,1,47.8,5.3,69.1,4.3,21.3,7.6,28,11.5,42,24.2-4.5,47-14.8,69.1-25.2-8.8-45.2-26.7-94.9-14.7-140.9,6.5-24.9,20.3-47.9,35.7-68.2h0ZM754.9,200.4c-56.6,2.1-112.1-12-168.7-10.7-34.8,13.2-70.7,23.2-104.8,38.1l-25.6,12.2c35.9,4.5,71.4,13,107.5,15.6,70.7,5.1,129.8-15.2,188.8-52.6,1.1-.7,2.7-1.1,2.8-2.6Z"/>
  <path class="st0" d="M516.4,408.2c-.6,0-2.1-3.1-1.8.6,11.4,10.5,24.5,12,39.3,9.2,1.6-.3,2.2-.3,1.6,1.6-4,12.4-16,31.5-23.1,43-25.9,42.3-79.9,95.4-22.6,139-1.6-18-1.6-34.2,2.8-51.9,9-36,57.9-108.1,81.1-139.9,18.5-25.4,42.5-51.3,73.5-60.4.2-3.1-3-3.5-3.6-6.6s1.7-11.9,1.2-18c-1.1-12.6-9.6-27.5-18-36.6,24.8,3.6,36.4,28.4,36.2,51.5,23.2,5,45.7,3.5,65.3,19.4,14,11.3,24,36,14.3,52.7-7.5,13-6.2-8.2-6.5-11.3-3.4-28.9-33.6-42.6-60.3-38.7-15.6,2.3-29.2,19.7-38,31.7-.7.9-3,8.2-3.8,2.2-1-7.4,1.5-14.6,4.8-21-47.8,21.8-75.1,72.9-88.9,121.3,23.9-22.4,40-57.7,65.5-78,15.2-12.1,12.5-2.4,23.5,5.3,14.8,10.4,35.4,4.8,51.5,14.6,6.9,4.2,21.4,19.2,20.5,27.4s-23.3,24.9-29.4,31.9c-39.2,44.5-47.2,109.7-108.7,135.1-34.4,14.2-46.4,3.6-77.8-5-27.5-7.5-49.7-3.6-61.5-35.8-20.9-56.8,38.7-95.6,40.9-144.2,1.5-33.3-38.8-38.4-37.2-71.4-17.5,9.1-23.2,22.1-16.5,41.2,8.2,23.4,18.9,33.3,10.6,61.6-.5,1.8.7,2.1-2.4,1.8-.3-29.3-34.5-50.3-31.1-79.7,2-17.6,21.4-29.4,29.1-45.3,7.3-15.1,5.3-31.5,19.4-43.1,18-14.7,39-7.9,59.2-12.9,7.6-1.9,14.4-6.3,21.9-8.2,33.1-8.3,67.7,13.5,78.1,45,2,0,2.3-4,2.4-5.4.4-5.9-1.1-11.8-1.5-17.7s-2.2-3.1.9-2.1,9.7,8.6,11.7,12.4c13,24.9-7.3,24.9-24.2,34.4,3.4-34.7-28.6-54.6-60.3-47.7-27,5.9-54.8,27.9-75.4,45.3,18.3,2.3,25,23.2,36.1,35.4,8.9,9.9,19.9,15.3,33.6,13.9l-9,3.6c-7.6-.3-15.2.3-22.8,0l-.6-.2ZM651.6,445.4c-37.3,15.6-83.8,46.6-95.8,87.4-11.4,39,7.8,47.9,42.9,39.3s25.8-9.7,33.6-21.7c.2-3.1-.5-1.3-2.1-.9-12.1,3.1-22.9,6.8-35.7,7.5s-30.9,2.3-20.4-13.2c6.6-9.7,44.5-26.1,57.4-35.1,10.2-7.2,26.6-21.4,33-31.8s2.6-3.1.8-4c-25.9,15.5-51.8,31.9-79.9,43.2-1.1-1.1,11-16.2,12.6-18,16.3-18.6,37.4-33.8,53.5-52.8h.1Z"/>
  <path class="st0" d="M1416.7,387.8l23.4,96.1,22.2-96.1h39.6v139.3h-26.4v-94.9c-1.9-.3-1.4,2.2-1.8,3.6-7.7,30.2-14.5,60.9-23.4,90.7l-22.9.5-22.8-94.9v94.9h-27.6v-139.3h39.7Z"/>
  <path class="st0" d="M900.2,202.8v112.3c0,.5,2.5,8,3,9,5.6,11.9,26.5,11.5,33.6,1.1s3.1-6.1,3.1-6.6v-115.9h33.6c0,1-1,1.8-1,3,1,28.8,5.7,101-2.1,125.5-12.1,38.2-80,41.2-97.1,7.1-1.3-2.5-5.5-14.1-5.5-16.1v-119.5h32.4Z"/>
  <path class="st0" d="M1088.8,247.2l-31.2,2.4c5.1-30.9-43.3-29.2-34,1,3.7,11.9,36.2,20.1,47.6,26.9,38.8,22.9,24.4,79.6-22.6,83.8-35.4,3.2-60.1-11.4-60.5-49.1l29.8-3.7c2.1,16.5,10.8,28.7,29.2,24.9,11.9-2.4,16.4-17,10.7-27-9.9-17.5-53.8-14.8-64.8-45.7-9.7-27.1,2.3-53.4,30.9-59.8s67.7,6.3,64.9,46.3h0Z"/>
  <path class="st0" d="M511,834.6c-18.9-26.9-5.7-58.9,16.8-78.7,28.7-25.2,65-25.6,93.7-50.4,14.7-12.7,30.5-38.9,51.2-41.3,24.7-3,32.2,2.5,55.6-12.8,44.2-28.9,81-107.4,54.6-157.7-11.7-22.2-39.1-32.4-22-62.6,3.9-2.7,17.3,13.6,19.7,16.9,25.7,36.1,31,83,18.4,125.1-12,40.1-54,103.6-99.1,108.7-17,1.9-23.2-6.2-38.1,6.3-15.7,13.2-26,32.4-43.4,44.3-17.2,11.7-37.7,16.2-55.7,26-29.8,16.3-47,42.6-51.6,76.3h-.1Z"/>
  <path class="st0" d="M1304.7,384.5c25.4-3.1,48.5,8,54,34.2,3.4,15.9,3.3,71.2-2.7,85.6-13.9,33.2-70.6,34.3-85.7,1.7-6.9-15-6.3-59.2-5-76.8s15-41.7,39.4-44.7h0ZM1307,412c-5.6,1.3-10.8,9.5-11.6,14.9-1.7,12.3-1.5,47.3,0,60,2.3,21.2,31.3,22.2,34.5.9s1.6-46,.3-58.5c-1.4-13.3-9.5-20.3-23.2-17.2h0Z"/>
  <path class="st0" d="M1003.5,387.8v102.7c0,9.8,11.5,15.6,20.5,13.2,4.2-1.1,10.8-7.8,10.8-12v-103.9h28.8v107.5c0,9.4-11.1,24.2-19.3,28.8-29.3,16.4-70.8.7-70.8-36v-100.3h30,0Z"/>
  <path class="st0" d="M965.1,692.8l34.2-139.4,33.7-1.3,36.6,140.6h-29.4l-6.5-25.7-33.8-.7-4.8,26.4h-30ZM1028.7,642.4l-11.4-54.1-11.4,54.1h22.8Z"/>
  <path class="st0" d="M1164.5,427.4l-27.6,2.4c.5-9-3.2-18.7-13.2-20-17-2.1-22,19.4-8.1,28.6,18.6,12.3,45.1,12.7,51,39.1,5.9,26.6-9.1,48.9-36.5,51.8-31.7,3.3-52.4-11-51.9-44.1l26.2-2.6c0,14.1,10.4,25.7,25.3,21.1,8.9-2.7,10.1-16.2,6.6-23.6-4.6-9.5-29.8-16-39.7-22.7-28.5-19.3-22.8-63.7,12.6-71.5,30-6.6,56.7,8.7,55.3,41.5h0Z"/>
  <path class="st0" d="M1260.6,593.2l-26.4,2.4c4.1-24.9-31.8-27.7-27.6-1.9,1.9,11.9,28.8,19.3,38.3,25.4,33.1,21.5,22.9,72.4-18.5,76.2-31.6,2.9-51.3-13.2-49.8-45.6l26.4-1.2c0,10.7,4.3,20.8,16.2,21.7,12.2.9,17.7-7,16.3-18.7-1.7-14.7-30.5-21.1-41.7-29.1-27.3-19.4-20.2-63.4,13.8-70.8,29.6-6.5,56.4,9.3,53.2,41.7h-.2Z"/>
  <path class="st0" d="M929,437c0-10.9-.3-24.1-13.8-25.3s-16.5,3.2-17.5,13.8c-1.4,14.2-1.7,49.9,0,63.8s14.7,19.2,25.2,11.9c6.6-4.6,5.8-16.1,6.1-23.4,5.1,4.3,26.9-3.4,28.6,2,2.4,35.9-22.4,56.7-57.5,49.1-20.5-4.4-30.8-20.7-32.4-40.9-1.4-17.4-2-64.9,4.6-79.6,15.7-35,77.4-32,84.2,10,.7,4.5,1.8,14.6-.5,18.5h-27,0Z"/>
  <path class="st0" d="M957.9,602.8h-30c-.4-4.7.7-10.1-.3-14.7-3-14.6-26.6-14-29.5,0-1.6,7.8-.2,14.3-.2,21.3,0,13.9-1.4,31.1,0,44.5,1.2,12.5,9.6,17.2,21.7,14.4s8.4-16.7,9.6-24.6h28.8c1,26.7-10.1,49.5-39,51.7-29.5,2.2-48.8-12.9-51.1-42.6-1.3-16.8-1.9-63.2,4.2-77.5,13.6-31.6,67.4-34.4,81.1-1.8,4.1,9.8,3.3,19.2,4.8,29.5v-.2Z"/>
  <path class="st0" d="M1110.4,642.4v50.4h-30v-140.5h53.5c8.1,0,21.1,8.5,25.8,15,11.9,16.3,10.2,54.6-6.8,67.7-3,2.3-13.3,7.4-16.6,7.4h-25.9ZM1109.2,618.4h17.4c.4,0,5.3-3,6-3.6,8.7-7.6,7.3-37.3-4.8-37.3h-18.6v40.8h0Z"/>
  <polygon class="st0" points="1258.1 387.8 1258.1 413 1230.5 413 1230.5 527.1 1200.5 527.1 1200.5 413 1171.7 413 1171.7 387.8 1258.1 387.8"/>
  <path class="st0" d="M399.3,566.7c-1.4-8.5-1.3-17.2-2.6-25.7-5.1-33.6-28.6-62.7-31-96.3-1.8-24.8,6.6-48.1,21-67.8,1.1,8.8-1.5,18.1-1.9,27-2.7,63.4,46.9,89.4,17.2,158.9-.6,1.5-.6,3.5-2.7,3.9h0Z"/>
  <path class="st0" d="M494.2,649.6c33.4,25.6,72.7,24.6,110.8,10.5,28-10.4,49.3-31.5,68.2-53.7-11.8,45.9-54.7,82.3-102.9,82.4-29.7,0-64.5-8.7-76.1-39.2h0Z"/>
  <path class="st0" d="M766.9,559.5l-6.4-23.1c-2-4.3-4-7-8.9-7.9-25-4.6-45.4,29.8-62.8,42.9,6.4-24.4,28.1-68.3,55.9-72,31.6-4.2,28.9,40.3,22.1,59.9v.2Z"/>
  <path class="st0" d="M430.6,641.2c-.7,2.1-2.9,3.3-4.7,4.3-42.2,22.5-108.3-24.4-109.4-70.3l7.8,10.8c27,30.7,66,49.3,106.3,55.3h0Z"/>
  <path class="st0" d="M592.7,348.1c-31.1-6.6-61.4,2.1-92.5,2.4,5.7-5.2,14.9-8.2,22.2-10.8,22.7-8.2,57.5-20.2,70.3,8.4Z"/>
  <path class="st0" d="M679.2,638.8l21.6-9c10.9-6.3,21.6-13.3,30-22.9l19.2-25.8c-3.4,36.9-31.9,67.3-70.8,57.6h0Z"/>
  <path class="st0" d="M572.3,375.7l13.2-3c-6.6,6.8-16.5,13.5-26.1,14.7-11.6,1.4-34.9-6.7-30.1-21.7,1.9-5.9,11.1,5,14.3,6.9,6.8,4.2,17.7,6.7,21-3s-2.2-2.9-1.9-5.9l8.8-1.1c4.7,1.5,0,12.1.8,13.1Z"/>
  <path class="st0" d="M728.4,429.8h-9.6c5.4-13.3-4.9-38.6-21-26.4-2.9,2.2-2.4.2-1.2-1.2,2.3-2.7,7.4-5.3,11-5.5,17-.9,24.9,18.8,20.8,33.2h0Z"/>
  <path class="st0" d="M748.9,431c-12.2,2-8.3-13.9-7.2-21.6l7.2,21.6Z"/>
</svg>