<?xml version="1.0" encoding="UTF-8"?>
<svg id="Layer_1" xmlns="http://www.w3.org/2000/svg" version="1.1" viewBox="0 0 2727.8 878.1">
  <!-- Generator: Adobe Illustrator 29.5.1, SVG Export Plug-In . SVG Version: 2.1.0 Build 141)  -->
  <defs>
    <style>
      .st0, .st1 {
        fill: #fff;
      }

      .st2 {
        fill: none;
        stroke-width: 23px;
      }

      .st2, .st1 {
        stroke: #fff;
        stroke-miterlimit: 10;
      }

      .st1 {
        stroke-width: 4px;
      }
    </style>
  </defs>
  <circle class="st2" cx="612.7" cy="448.4" r="406.8"/>
  <path class="st1" d="M2394,185.9l38.3,157.4,36.3-157.4h64.9v228.1h-43.2v-155.4c-3.1-.5-2.3,3.6-2.9,5.9-12.6,49.4-23.7,99.7-38.3,148.6l-37.5.8-37.4-155.4v155.4h-45.2v-228.1h65.1v.2Z"/>
  <path class="st1" d="M1161,193.4v153.7c0,.7,3.4,10.9,4.1,12.3,7.7,16.3,36.3,15.7,46,1.5,9.7-14.2,4.3-8.4,4.3-9v-158.6h46c0,1.4-1.4,2.4-1.4,4.1,1.4,39.4,7.8,138.2-2.9,171.8-16.6,52.3-109.5,56.4-132.8,9.7-1.7-3.4-7.5-19.3-7.5-22v-163.5h44.3v.2h0Z"/>
  <path class="st1" d="M1419.1,254.1l-42.7,3.3c7-42.3-59.3-40-46.5,1.4,5.1,16.3,49.6,27.5,65.1,36.8,53.1,31.3,33.4,108.9-30.9,114.7-48.4,4.4-82.2-15.6-82.8-67.2l40.8-5.1c2.9,22.6,14.7,39.3,40,34,16.3-3.3,22.4-23.3,14.7-36.9-13.5-23.9-73.6-20.3-88.7-62.5-13.3-37.1,3.1-73.1,42.3-81.8s92.6,8.6,88.8,63.4h0Z"/>
  <path class="st1" d="M2210.6,180.5c41.6-5.1,79.5,13.1,88.4,56,5.6,26.1,5.4,116.6-4.4,140.2-22.8,54.4-115.6,56.2-140.4,2.8-11.3-24.6-10.4-97-8.2-125.8,2.2-28.8,24.6-68.3,64.5-73.2h0ZM2214.4,225.5c-9.1,2.2-17.7,15.5-19,24.4-2.8,20.1-2.4,77.5,0,98.3,3.8,34.7,51.2,36.3,56.5,1.5s2.6-75.3.5-95.8c-2.3-21.7-15.5-33.2-38-28.1h0v-.2h0Z"/>
  <path class="st1" d="M1717.3,185.9v168.2c0,16,18.8,25.5,33.6,21.7,6.9-1.8,17.7-12.8,17.7-19.7v-170.1h47.2v176c0,15.4-18.2,39.6-31.6,47.2-48,26.8-116,1.1-116-58.9v-164.3h49.1Z"/>
  <path class="st1" d="M1616.6,776.3l66.6-271.6,65.7-2.5,71.3,274h-57.3l-12.7-50.1-65.9-1.4-9.3,51.5h-58.4v.2h0ZM1740.5,678.1l-22.2-105.4-22.2,105.4h44.5,0Z"/>
  <path class="st1" d="M1981,250.8l-45.2,4c.8-14.8-5.3-30.6-21.7-32.8-27.9-3.5-36.1,31.7-13.3,46.8,30.5,20.1,73.9,20.8,83.5,64,9.7,43.6-14.9,80.1-59.8,84.8-51.9,5.4-85.8-18-85-72.2l42.9-4.2c0,23.1,17,42.1,41.4,34.6,14.6-4.4,16.6-26.5,10.8-38.7-7.5-15.5-48.8-26.2-65.1-37.2-46.7-31.6-37.4-104.3,20.6-117.1,49.1-10.8,92.8,14.2,90.6,68h.2Z"/>
  <path class="st1" d="M2192.4,582.2l-51.5,4.7c8-48.5-61.9-54-53.8-3.7,3.7,23.2,56.1,37.6,74.6,49.5,64.5,41.9,44.6,141.1-36,148.5-61.6,5.6-99.9-25.7-97-88.8l51.5-2.4c0,20.8,8.4,40.5,31.5,42.3,23.8,1.7,34.5-13.6,31.8-36.4-3.3-28.7-59.4-41.1-81.2-56.7-53.2-37.8-39.4-123.6,26.9-137.9,57.7-12.7,109.9,18.1,103.7,81.2h-.4v-.2h0Z"/>
  <path class="st1" d="M1595.3,266.5c0-17.9-.5-39.4-22.6-41.4s-27,5.3-28.6,22.6c-2.3,23.3-2.8,81.7,0,104.5s24.1,31.4,41.2,19.5c10.8-7.5,9.5-26.4,10-38.3,8.4,7.1,44.1-5.6,46.8,3.3,4,58.8-36.7,92.8-94.1,80.4-33.6-7.2-50.5-33.9-53.1-66.9-2.3-28.5-3.3-106.3,7.5-130.4,25.7-57.3,126.7-52.4,137.9,16.4,1.1,7.3,2.9,23.9-.8,30.3h-44.2v.2h0Z"/>
  <path class="st1" d="M1602.6,600.9h-58.4c-.8-9.2,1.4-19.7-.6-28.7-5.9-28.4-51.8-27.3-57.5,0-3.1,15.2-.4,27.9-.4,41.5,0,27.1-2.7,60.6,0,86.7,2.4,24.4,18.7,33.5,42.3,28,23.6-5.5,16.3-32.5,18.7-48h56.1c2,52.1-19.7,96.4-76,100.8-57.5,4.3-95.1-25.2-99.6-83-2.5-32.8-3.7-123.1,8.2-151,26.5-61.6,131.3-67,158-3.5,8,19.1,6.5,37.4,9.3,57.5v-.4h-.2,0Z"/>
  <path class="st1" d="M1899.8,678.1v98.2h-58.4v-273.7h104.3c15.8,0,41.1,16.6,50.3,29.3,23.2,31.8,19.9,106.4-13.2,131.9-5.9,4.5-25.9,14.4-32.4,14.4h-50.5ZM1897.4,631.3h33.9c.8,0,10.3-5.9,11.7-7,16.9-14.8,14.2-72.7-9.3-72.7h-36.3v79.5h0v.2h0Z"/>
  <polygon class="st1" points="2134.3 185.9 2134.3 227.1 2089.1 227.1 2089.1 414 2040 414 2040 227.1 1992.8 227.1 1992.8 185.9 2134.3 185.9"/>
  <g>
    <path class="st0" d="M744.2,245c9.7.7,19.8.5,29.6,1.1,27.3,1.7,54.9,3.9,82.2,6.4s37.5,2.1,46.9,6.9c15.3,7.8,11.6,27.8,3.2,39.5-15.3,21.4-44.1,39.3-69.8,44.4-11.1,2.2-24.3,5-31.9-5.5,29.9-1.1,65.9-17.9,83.4-42.6s14.2-24.2-4.4-21.7c-18.6,2.5-55.2,33.2-76.9,42.7-63.5,27.7-110.7,8.1-172.8-4-15.4-3-34.2,3.7-49.1,8.4-33.3,10.5-65.8,24.4-98.8,35.9,2,3.2,8.4.4,10,4.6-28.7,11.8-66.9,13.6-90.8,34.7-32.6,28.8,12.8,48.9,31.9,65.7,9.1,8.1,16.3,16.3,22.6,26.8s18.1,43.6,39,28.3c19.4-14.1,19.6-50.4,23-71.9,6.5-41,19.2-89.8,64.7-101.9-24.9,19.5-36.5,51.1-41,81.8-4.7,32.5-2.9,108.9-49.1,114.3-37.6,4.4-38.2-33.5-58.3-55.6-4-4.3-18.5-17.4-23.3-19.6s-1.7-.7-2.7-.5c-15.8,36.9-39.2,69.5-63.9,100.8l29.5,11.6,53.5,30c-9-20.8-12.1-43.5-10.9-66.2l1.8-7.8c7.2,30.4,24,56.5,42.6,81.2,35.6,47.2,82.3,90.7,135,117.9,1.3-15.2,4.8-30.8,10.9-44.7,12.9-29,41.9-37.4,71.7-32.9.5,2.1-.2,1.4-1.1,2.1-4.3,2.7-12,4.3-17.4,7.2-32.6,18-54,60.2-32.6,94.8-3.6,2.7-42-15.8-48.1-19-55.6-29.8-104.2-74.9-156.1-110.4-34.6-23.7-71.4-42.6-114.4-44-.8-.7,2.6-5.3,3.3-6.3,23.7-34,50.3-64.8,72.9-100.5,2.4-3.8,11.2-16.9,12-20s-6.5-6.6-8.8-8.7c-5.5-5.2-13.7-12.8-17.2-19.4-18.7-35.2,32.1-56,56.4-67.9-1.8-5.2-3.1-10.8-4.3-16.3-5.9-27.8-13.5-58.7-7.1-86.9,10.7-47,61.4-77.4,102.5-95.1-.8-18.9,34-26.9,44-12.2,13.4.6,27.1-2.7,40.6-3.2,25.6-1.1,56.1,2.7,78.7,15.4,29.3,16.5,47.4,51.8,58.8,82.2l.2-.2h0ZM723.9,248.8c-11.9-33.7-34.2-69.1-70.8-79.3-24.3-6.8-52.1-7.4-77.1-5.5,29.1,21.4,43.6,56.2,54.1,89.7s7.3,24.2,8.9,36.3l84.8-41.1h0ZM625.4,298.1c-10.6-42.6-25.3-87.2-56.2-119.6-3.4-3.6-10.3-11.2-15.3-10.8-24,2.1-40.3,28.7-46.1,49.9-5.4,19.6-5.1,42.6-3,62.7,1.7,16.9,6.1,33.7,8.2,50.7,36-15.2,73.9-25.1,112.2-32.8h0ZM516.7,178.6c-37.5,17.4-75.9,50-81.2,93.6-2,16.3.8,36.3,4,52.5,3.3,16.2,5.8,21.3,8.7,31.9,18.4-3.4,35.7-11.2,52.5-19.2-6.7-34.4-20.3-72.1-11.2-107.1,4.9-18.9,15.4-36.4,27.1-51.8h0ZM860,268.9c-43,1.6-85.2-9.1-128.2-8.1-26.4,10-53.7,17.6-79.6,29l-19.5,9.3c27.3,3.4,54.3,9.9,81.7,11.9,53.7,3.9,98.6-11.6,143.5-40,.8-.5,2.1-.8,2.1-2Z"/>
    <path class="st0" d="M678.7,426.8c-.5,0-1.6-2.4-1.4.5,8.7,8,18.6,9.1,29.9,7,1.2-.2,1.7-.2,1.2,1.2-3,9.4-12.2,23.9-17.6,32.7-19.7,32.1-60.7,72.5-17.2,105.6-1.2-13.7-1.2-26,2.1-39.4,6.8-27.4,44-82.2,61.6-106.3,14.1-19.3,32.3-39,55.9-45.9.2-2.4-2.3-2.7-2.7-5s1.3-9,.9-13.7c-.8-9.6-7.3-20.9-13.7-27.8,18.8,2.7,27.7,21.6,27.5,39.1,17.6,3.8,34.7,2.7,49.6,14.7,10.6,8.6,18.2,27.4,10.9,40.1-5.7,9.9-4.7-6.2-4.9-8.6-2.6-22-25.5-32.4-45.8-29.4-11.9,1.7-22.2,15-28.9,24.1-.5.7-2.3,6.2-2.9,1.7-.8-5.6,1.1-11.1,3.6-16-36.3,16.6-57.1,55.4-67.6,92.2,18.2-17,30.4-43.9,49.8-59.3,11.6-9.2,9.5-1.8,17.9,4,11.2,7.9,26.9,3.6,39.1,11.1,5.2,3.2,16.3,14.6,15.6,20.8s-17.7,18.9-22.3,24.2c-29.8,33.8-35.9,83.4-82.6,102.7-26.1,10.8-35.3,2.7-59.1-3.8-20.9-5.7-37.8-2.7-46.7-27.2-15.9-43.2,29.4-72.7,31.1-109.6,1.1-25.3-29.5-29.2-28.3-54.3-13.3,6.9-17.6,16.8-12.5,31.3,6.2,17.8,14.4,25.3,8.1,46.8-.4,1.4.5,1.6-1.8,1.4-.2-22.3-26.2-38.2-23.6-60.6,1.5-13.4,16.3-22.3,22.1-34.4,5.5-11.5,4-23.9,14.7-32.8,13.7-11.2,29.6-6,45-9.8,5.8-1.4,10.9-4.8,16.6-6.2,25.2-6.3,51.5,10.3,59.4,34.2,1.5,0,1.7-3,1.8-4.1.3-4.5-.8-9-1.1-13.5s-1.7-2.4.7-1.6,7.4,6.5,8.9,9.4c9.9,18.9-5.5,18.9-18.4,26.1,2.6-26.4-21.7-41.5-45.8-36.3-20.5,4.5-41.6,21.2-57.3,34.4,13.9,1.7,19,17.6,27.4,26.9,6.8,7.5,15.1,11.6,25.5,10.6l-6.8,2.7c-5.8-.2-11.6.2-17.3,0l-.5-.2h0ZM781.5,455.1c-28.3,11.9-63.7,35.4-72.8,66.4-8.7,29.6,5.9,36.4,32.6,29.9s19.6-7.4,25.5-16.5c.2-2.4-.4-1-1.6-.7-9.2,2.4-17.4,5.2-27.1,5.7-9.7.5-23.5,1.7-15.5-10,5-7.4,33.8-19.8,43.6-26.7,7.8-5.5,20.2-16.3,25.1-24.2s2-2.4.6-3c-19.7,11.8-39.4,24.2-60.7,32.8-.8-.8,8.4-12.3,9.6-13.7,12.4-14.1,28.4-25.7,40.7-40.1h0Z"/>
    <path class="st0" d="M674.6,750.9c-14.4-20.4-4.3-44.8,12.8-59.8,21.8-19.2,49.4-19.5,71.2-38.3,11.2-9.7,23.2-29.6,38.9-31.4,18.8-2.3,24.5,1.9,42.3-9.7,33.6-22,61.6-81.6,41.5-119.8-8.9-16.9-29.7-24.6-16.7-47.6,3-2.1,13.1,10.3,15,12.8,19.5,27.4,23.6,63.1,14,95.1-9.1,30.5-41,78.7-75.3,82.6-12.9,1.4-17.6-4.7-29,4.8-11.9,10-19.8,24.6-33,33.7-13.1,8.9-28.7,12.3-42.3,19.8-22.6,12.4-35.7,32.4-39.2,58h0Z"/>
    <path class="st0" d="M589.7,547.3c-1.1-6.5-1-13.1-2-19.5-3.9-25.5-21.7-47.7-23.6-73.2-1.4-18.8,5-36.6,16-51.5.8,6.7-1.1,13.8-1.4,20.5-2.1,48.2,35.6,67.9,13.1,120.8-.5,1.1-.5,2.7-2.1,3h0Z"/>
    <path class="st0" d="M661.9,610.3c25.4,19.5,55.3,18.7,84.2,8,21.3-7.9,37.5-23.9,51.8-40.8-9,34.9-41.6,62.5-78.2,62.6-22.6,0-49-6.6-57.8-29.8h0Z"/>
    <path class="st0" d="M869.1,541.8l-4.9-17.6c-1.5-3.3-3-5.3-6.8-6-19-3.5-34.5,22.6-47.7,32.6,4.9-18.5,21.4-51.9,42.5-54.7,24-3.2,22,30.6,16.8,45.5v.2h0Z"/>
    <path class="st0" d="M613.5,603.9c-.5,1.6-2.2,2.5-3.6,3.3-32.1,17.1-82.3-18.5-83.1-53.4l5.9,8.2c20.5,23.3,50.2,37.5,80.8,42h0Z"/>
    <path class="st0" d="M736.7,381.2c-23.6-5-46.7,1.6-70.3,1.8,4.3-4,11.3-6.2,16.9-8.2,17.3-6.2,43.7-15.4,53.4,6.4Z"/>
    <path class="st0" d="M802.5,602.1l16.4-6.8c8.3-4.8,16.4-10.1,22.8-17.4l14.6-19.6c-2.6,28-24.2,51.1-53.8,43.8h0Z"/>
    <path class="st0" d="M721.2,402.1l10-2.3c-5,5.2-12.5,10.3-19.8,11.2-8.8,1.1-26.5-5.1-22.9-16.5,1.4-4.5,8.4,3.8,10.9,5.2,5.2,3.2,13.5,5.1,16-2.3s-1.7-2.2-1.4-4.5l6.7-.8c3.6,1.1,0,9.2.6,10Z"/>
    <path class="st0" d="M839.8,443.2h-7.3c4.1-10.1-3.7-29.3-16-20.1-2.2,1.7-1.8.2-.9-.9,1.7-2.1,5.6-4,8.4-4.2,12.9-.7,18.9,14.3,15.8,25.2h0Z"/>
    <path class="st0" d="M855.4,444.2c-9.3,1.5-6.3-10.6-5.5-16.4l5.5,16.4Z"/>
  </g>
</svg>