<?xml version="1.0" encoding="UTF-8"?>
<svg id="Layer_1" xmlns="http://www.w3.org/2000/svg" version="1.1" viewBox="0 0 989 445">
  <!-- Generator: Adobe Illustrator 29.5.1, SVG Export Plug-In . SVG Version: 2.1.0 Build 141)  -->
  <defs>
    <style>
      .st0 {
        fill: #262728;
      }

      .st1 {
        fill: #fff;
      }

      .st2 {
        fill: #c9ce37;
      }

      .st3 {
        fill: #040401;
      }
    </style>
  </defs>
  <path class="st2" d="M266.6,323.2c-.2,0-.7.7-1.2.5-.6-.7,1.6-5.8,1.9-7s.8-2.9,1-3.4.2-3.5-.2-3.5c-1.4.2-1.9,1.4-3.2,2.1-8.9,4.9-20.3,6.9-30.5,8.9-58.3,1.6-117.3,1.6-175.6,0-15.1-2.6-32.9-8.7-39.7-23.6s-2.5-5.3-2.9-8.8c-.5-5,0-13.4,1-18.3s3.5-12.4,5.6-18.9c5.2-16,9.9-31.7,15.6-49.2s11.6-32.5,15.8-49c3.3-12.8,10.1-26.7,12.9-39.9s8.3-20.2,10.1-28c8.6-38.9,41.8-61.7,81.9-67.3,140.7-.8,281.6-.8,422.3,0,10.6,2.1,20.6,4.4,30.2,9.7,9.6,5.3,2.4,3,4.6,1.7l2-7.7c1.3-.9,1-2.9,2.2-4.2h108.7c-.7,1.9,1,2.8,1.3,3.7s0,1.8.2,2.7c8.5,28.6,15,56.9,23.7,83.9l2.1,9.8,1.2.3c1-2.2,2.9-3.7,4.4-5.5,23.1-26.2,47.4-53.2,71.4-79.3,4.8-5.3,9.8-10.5,14.9-15.6h123.6c-1,4.6-3.2,8.9-4.7,13.3-28.2,83.1-54.2,168-80.9,250.3-5.4,12.5-7.5,23.8-12,37s-2.1,2-1.3,4.2h-123.8l25-79.2c-.4-.5-1.8,1.1-1.9,1.3-7,10-16.5,18.6-24.8,27.7-14.2,15.6-27.5,31.4-42.3,46.5-.6.6-1.6,2.8-2.4,3.2-2.3,1.1-6.1.3-8.7.4-.5-.3-1.7-4.4-2-5.5-3.6-11.2-6.3-21.5-10.1-33.4-4-12.4-7.9-24.3-12-37.4s-1.8-3.8-1.9-4.1c-.2-.7.3-3.5-.3-3.5l-1.7.8c-.2,2.9-1,6-1.9,8.9-2.7,8.6-8,20.1-10,28.1-3.7,14.5-9.7,29.2-13.9,44.1s0,1.5,0,2.1h-122.9l33.8-103.2c-1.8,0-2.3,1.4-3.6,2.1-17.5,10-40.4,13-60.2,13.7-20.5.8-41.5-.7-62.1,0l-29.6,88.2h-129.1v.3ZM342.9,32.1c-6.9-2.7-16.6-3.8-24-4.1-51.6-2.1-104.9,1.2-156.5.5-35.6,5.4-60.4,20.5-72.3,54.9-5.9,17.2-11.9,36.4-16.9,52.7s-12,35.3-18,53.6c-5.2,15.8-10.1,32.5-15,48.2-3.2,10.3-8,21.9-10.1,32.7s-2.5,8.6-1.9,13.9,4,11.4,7.5,15.6,7.2,4.7,8.7,5.3c8.4,3.5,16.8,4.9,25.8,5.8h158.4c8.4-1.1,16.4-1.8,24.5-4.8,24.1-8.8,32.2-30.5,39.2-51.5,2.2-6.5,3.8-11.5,5.7-17.4,3.7-11.9,8.6-24.5,11.9-34.7,4-12.1,7.8-24,11.2-34.8s8.1-22.8,11.7-33.9c5.3-16,10.1-31.2,15.3-47.1s6.6-18.5,7.9-28.1.4-12.2,0-13.8-.9-.3-.9-.7c-.3-1.6-.3-2.5-1-4.1-1.7-3.4-7.9-7.1-11.2-8.4v.2ZM281,313.6h105.6l28.6-88.3h69.4c22.7-.8,45.9-2.9,63.9-16.3,18.6-13.8,23.7-37.3,30.9-58.2s7.1-19.8,10.8-30.5c3.9-11.4,6.2-19.8,9.9-30.9,3.2-9.7,7-18.5,9-28s1.5-9.8,1-13.5-.9-.6-1-1c-.2-.8.2-1.8,0-2.7s-4.7-6.2-5.1-6.6c-7.4-6.7-26.3-9.2-35.9-9.6h-191.8c.9,2-.9,3-1,3.2-2,8.9-5.8,17.7-9,26.9s-4.8,16.5-7.9,25.7c-5.7,16.7-11.8,32.4-17.1,48.7-5.3,16.3-10.3,30.7-14.9,44.2-6.2,18.2-11.2,34-17,50.6s-7,22-11,33.6-13.5,34.3-17.3,50.4-.6.8-.8,1.2l.7,1.1h0ZM953.9,28.5h-101.5c-1.8,2.8-4.7,5.3-7,7.9-28.3,31.1-57.1,63-85.5,94.8-3,2.8-5.9,5.7-8.1,9.2-2.6-.4-1.3-1.9-1.7-3.6-1.1-5-3-10.1-4.6-15.5-4-13.7-7.2-25.5-11-38.9-5-17.5-8.7-32.4-14.4-49.4s0-3-1.2-4.3h-89.6c-.2,0-.8,3.7-1,4.3-4.7,12.6-9.4,26.5-13.8,39.1s-9.7,28.5-14,41.3c-4.6,13.9-8.7,26.4-13.2,39.5s-7.6,21-10.8,30.6c-5,14.9-9.2,28-14.2,42.4s-8.9,26.4-13.3,39.5-11.8,30.7-14.7,44.2-2,1.2-.7,2.7l96.2.3,38.4-112.1,33.4,106.6,98.6-105.6-35,110.4h97.7c1.3-.9,1-2.5,1.5-3.8,4.5-12,7.3-22.4,11.6-34.5,24.5-74.7,48.4-150.6,73.5-225.6,2.1-6.1,3.7-11.5,4.9-17.1s1.8-1,1-2.7c-.5-.2-1,.5-1.2.5l-.3-.2Z"/>
  <path class="st1" d="M321,406.8l1-3.8h-25v-17.3h48.5v18.5c0,2.9-3.5,10-5.1,12.6-12.6,19.7-53.6,20.5-72.2,10.4-10.2-5.5-17.6-15.7-19.2-27.3s-.3-13.8,0-15.3.9-.3.9-.7c2-8.9,3.9-13.9,11.2-20.6,19-17.2,71.1-18,82,8.5.3.8,1.9,6.1.6,6.1h-23.8c-1.8-4.1-4.7-6.4-8.9-8.2-12.7-5.3-28.8-2.4-35,10.4-3,6.3-3.5,13.9-1.7,21.5s6.1,10.4,10.2,12.3c8.7,4,24,4.4,32.1-1,.6-.4,4.1-4.8,4.2-5.3.6,1.7,2.1.9,1.9-.7l-1.9-.2h.2ZM321,410.6v-1h-.5v1h.5Z"/>
  <path class="st1" d="M530.3,417.8c0,1.3-.6.7-.9,1.4-1.2,2.8-2.6,6-3.8,8.6s-.7,2-1,3h-24.5c-.3-2.6,2-4.4,2.8-6.2,10.2-20.7,19.7-41,29.8-61.7s4-10.6,6-10.8c7,.7,15.3-.8,22.1,0s1.9,2.1,2.7,3.5c7.7,14.4,15.6,31.2,23.2,46.8,2.3,4.7,8.5,15.2,9.4,19.8-4.8,1.2-.4,2.1,0,2.5.8,1.2,0,3.1,0,3.9s1.5,0,1,1.2l-4.1-1-15.4.5c-1.9-.7-1.1-2.2-3.1-2.9,0-2.5-.6-2-1.1-3.4-.9-2.2-2.9-7.8-4.9-8.6s-2-.4-2.9-.5c-10.9-.9-23.1.7-34.1,0-2.1.2-1.3,1-1.7,1.5-1.3,1.4-2.4,1.5-1.9,3.8l2.4-1.4h0ZM538.5,400h22.6l-10.6-25.1-1.2-.3-10.8,25.4Z"/>
  <path class="st1" d="M572.6,425h.9v1.4c.3.2.7,0,.9,0,0,.8-.5,1.3-.5,1.4-1.1-.5-1.2-1.8-1.4-2.9h0Z"/>
  <path class="st1" d="M531.3,415.4v1h-1s-.7-.4-.5-1h1.5Z"/>
  <path class="st1" d="M417,385.2l1.7,1.5h35.3v10.5c-.5-.2-1,.5-1.2.5h-41.3s-1.2,1.1-1.2,1.2v19.9l2.6-1h44.4c.2.3-.2,5.3,0,6.5s.9,1.4,1,2.4-1.7,1.1-1,2.6h-67.2v-75.4h68.2c.7,2.4-1.4,3.9-.6,6l-.4,6.5h-46.3l-.7.7v19.4c2.6.2.6-2.9,1-3.4h1v1.9h4.8v.2Z"/>
  <path class="st1" d="M638.8,353.2c0-.3.5-.8.6-1.1h41.9c18.7.1,39.1,7.6,35,30.2s-1.1,4.6-2.5,6.7-6,7-8.9,9-5-.3-4.7,2.3l22.1,30.5h-27.4c0-.4,0-.9-.2-1.2-5.2-7.9-10.9-15.7-15.8-23.5s-1.6-1.6-1.7-2.6h-13.9v27.4h-24.5v-77.7ZM641.2,428.8h20.2v-23h-1.4v-1.4h1.9v-2.4c5.4.3,10.9-.6,16.2.1,2.6,2.6,4.2,6.1,6.2,8.9,3.7,5.3,7.5,10.8,11.2,15.8s.8,1.8,1,1.9c.6.3,4.8.2,5.7-.1s1.5-2.3,3.1-2.2l-.2,2.4h10.8c.4,0,2.8,1.3,3.1,1v-1.4c-2.6-.2-1.5-1.2-2-2-1.8-3.4-12.2-17.9-15-20.4s-1.4-.3-1.7-.9c-.3-1.1.8-.6.9-.7.7-.9-.6-.9-.7-1.1-.5-.9-3.1-4.1-2.6-4.6,1.6.3,2-1.5,3.2-2.3,2-1.2,4.1-.8,4.8-1.2s.6-1.7,1-2c.6-.5,1.4-.2,1.9-.6s4.3-5,4.3-5.3c.4-2.1.5-5.5,1-7.5s1-.3,1-.6c0-.8-1.8-2.2-.8-3.5s2.3-.3,0-1.4l-.9-7.4h-1.9c-.5-1.3.8-.8.9-1,.7-1-.9-1-1.4-1.6-2.9-3.4-9.5-8.1-14.2-8.9s-5-.5-5.2-.4c-.6.1-.6,1.2-.8,1.3-1.5,1-4.2-2.2-5.4-2.4-4.8-.6-12.2,0-17.3,0h-26.6c0,1.4-.5,2.2,1,2.7l-1,1.4v70.8h-.2Z"/>
  <path class="st1" d="M402.2,430.8s-.5-.5-1.2-.5h-11.8v-77.3h69.6v14.4c-14.8-.4-29.6.4-44.4,0s-1.4-.2-2.1-.5c.2,5.4-.3,11,0,16.3h-1c-.4.5,1.6,3.5-1,3.4v-19.4l.7-.7h46.3l.4-6.5c-.8-2.1,1.2-3.6.6-6h-68.2v75.4h67.2c-.7-1.6,1-2,1-2.6,0-1-.9-1.6-1-2.4s.2-6.2,0-6.5h-44.4l-2.6,1v-19.9s1.1-1.2,1.2-1.2h41.3c.2,0,.7-.6,1.2-.5v-10.6h-35.3l-1.7-1.4c12.6.2,25.3-.4,37.9,0,.2,3.9-.7,8.3,1,12v1h-43.4c-.5,0-.2.6-.3,1-.5,4,.2,9.2,0,13.4s-.4,0-.5.7,0,2.1,0,3.1h1c14.5.7,30,0,44.6,0l.7.5.2-.5h.5l.5,13.9h-13.7c-4.6,0-1.1.5-1.2.5h-7.1c-4.9,0-9.8-.2-14.9,0s-2.9,0-4.3,0c-.6-.8-2.8-.8-3.4,0h-1.4c-2.3-.3-2.3,0-3.8,0h-7.2Z"/>
  <path class="st1" d="M402.2,430.8c-.5.8-1.8.5-2.6.5-3.7,0-7.7.3-11.3-.5v-78.7h72v15.4h-1.4v-14.4h-69.6v77.3h11.8c3.9,0,1.1.5,1.2.5h-.1Z"/>
  <path class="st1" d="M530.3,416.4v1.4l-2.4,1.4c-.5-2.4.6-2.4,1.9-3.8-.2.6.5.9.5,1Z"/>
  <path class="st1" d="M574.5,426.4c-.2,0-.6.2-.9,0v-1.3h-1c0-.3-.5-.4-.5-1.4s.7-.4.5-1h-1.4c0-.4,0-1.3,0-1.4v-1h-1v-1.9h-1v-1c0-.5,0-.9,0-1.4-.2-.2-.7,0-.9,0-.6-.2-.7-.4-1.6-.5-10-.7-25.3-.6-35.3,0s-1,0-1.4,0c.4-.5-.4-1.2,1.7-1.5,11.1.7,23.2-.9,34.1,0,.9,0,2,.2,2.9.5,2,.8,4,6.4,4.9,8.6s1.3.9,1.1,3.4h-.2Z"/>
  <path class="st1" d="M596.1,422.1v1.9h1v1c.2,1.2,1.4,1.1,1,2.9h1.4c.3.9.6,1.9.5,2.9-3-.5-23.5.7-24.4-.1s0-.8,0-.8v-1h-1.4v-1c0-.3.4-.6.5-1.4,2,.8,1.2,2.2,3.1,2.9l15.4-.5,4.1,1c.5-1.3-1-.8-1-1.2,0-.9.8-2.8,0-3.9s-4.7-1.3,0-2.5l-.3-.2Z"/>
  <path class="st1" d="M455.9,398.1c0,.3.3,1-.3,1h-43.4c0-.4-.2-1,.3-1h43.4Z"/>
  <path class="st1" d="M458.8,416.4h1.4v14.3c-.6.8-11.3.6-13.2.6s-1.9.2-2.6-.5c0,0,.1-.5,1.2-.5h13.7l-.5-13.9Z"/>
  <path class="st1" d="M455,385.2h1.4c0,4.1.3,8.1-.5,12-1.7-3.7-.7-8.1-1-12h.1Z"/>
  <path class="st1" d="M437.2,430.8c-3.8.8-8.3.6-12.3.5s-1.9.2-2.6-.5c5-.2,10,0,14.9,0Z"/>
  <path class="st1" d="M412.7,416.4h-1v-3.1c0-1,.5-.7.5-.7.9,1.1.4,2.6.5,3.8h0Z"/>
  <path class="st1" d="M413.2,430.8c-1,.8-2.8.8-3.8,0,1.6,0,1.6-.3,3.8,0Z"/>
  <path class="st1" d="M443,430.8c-1,.8-2.8.8-3.8,0h3.8Z"/>
  <path class="st1" d="M597,425c1.5-.6,2,1.6,2.4,2.9h-1.4c.5-1.8-.8-1.6-1-2.9Z"/>
  <path class="st1" d="M418,430.8c-1.6,0-1.2.3-3.4,0,.6-.8,2.8-.8,3.4,0Z"/>
  <path class="st1" d="M321,406.8l1.9.2c.2,1.6-1.3,2.5-1.9.7v-1h0Z"/>
  <path class="st1" d="M568.2,415.9c.2,0,.7-.2.9,0,.2.4,0,.9,0,1.4h-1v-1.4h0Z"/>
  <path class="st1" d="M569.2,418.3h1v1.4h-1v-1.4Z"/>
  <path class="st1" d="M571.1,422.6h1.4c.2.5-.5.9-.5,1h-1v-1h0Z"/>
  <path class="st1" d="M596.1,422.6h1v1.4h-1v-1.4Z"/>
  <path class="st1" d="M574,428.8h1.4v1c-.6-.3-1.4.8-1.4-1Z"/>
  <path class="st1" d="M458.3,416.4l-.2.5-.7-.5h1,0Z"/>
  <path class="st1" d="M570.2,420.2h1v1c-.3-.3-.7.8-1-1Z"/>
  <path class="st3" d="M953.9,28.5c.2,0,.7-.7,1.2-.5.8,1.7-.9,2.6-1,2.7-1.2,5.5-2.9,10.9-4.9,17.1-25.1,75-49,150.9-73.5,225.6-4.3,12.1-7.1,22.5-11.6,34.5s-.2,2.9-1.5,3.8h-97.7l35-110.4-98.6,105.6-33.4-106.6-38.4,112.1-96.2-.3c-1.4-1.6.6-2.6.7-2.7,3-13.5,10.1-30.4,14.7-44.2s8.6-25.8,13.3-39.5,9.2-27.5,14.2-42.4c3.2-9.6,7-19.7,10.8-30.6s8.6-25.6,13.2-39.5c4.3-12.8,9.3-27.5,14-41.3s9-26.5,13.8-39.1.9-4.2,1-4.4h89.6c1.3,1.4.8,3.1,1.2,4.4,5.7,17,9.4,31.9,14.4,49.4,3.9,13.4,7,25.2,11,38.9,1.6,5.4,3.5,10.5,4.6,15.5s-1,3.2,1.7,3.6c2.2-3.5,5.1-6.4,8.1-9.2,28.4-31.8,57.2-63.7,85.5-94.8,2.3-2.5,5.2-5.1,7-7.9h101.5l.3.2ZM547.1,303.1h75.8l45.8-138.2,1.2.2c0,3.4,1.1,6.7,2,10,5.4,17.8,10.8,35.7,16.3,53.7,4.4,14.5,9.5,29.2,13.8,43.8.4,1.3.6,3.3,1,4.7,1,3.3,2.4,6.6,2.9,10l1.2.3,116.9-127.7-45.6,143h77.8c0-.7,0-1.4,0-2,1.9-5.9,3.2-11.9,6-17.5,22.1-71,45.8-140,67.8-209.7,2.1-6.6,3.8-14.1,6.8-20.7,1.6-3.5,2.1-7.3,3.4-11.3s.8-.4.9-.7c.2-.9,0-2.1,0-3h-84.2c-24.7,28-50.1,55.6-74.7,83.2-11.2,12.5-25.1,25.7-33.2,40.3s-1,.8-1.2,1.9h-1.7c.8-1.8-.9-2.6-1-2.8-3.6-15.9-9-31.2-12.9-45.6-7-25.5-14.3-50.6-21.1-74.8s0-1.5,0-2.1h-73.9l-90.3,265h.1Z"/>
  <path class="st3" d="M281,313.6l-.7-1.1c.2-.4.7-.7.8-1.2,3.7-16.1,11.7-34.2,17.3-50.4s6.8-21.6,11-33.6,10.8-32.4,17-50.6c4.6-13.4,10.2-29.7,14.9-44.2s11.5-32,17.1-48.7c3.1-9.2,5-17.2,7.9-25.7s7-18,9-26.9,1.8-1.2,1-3.2h191.8c9.6.4,28.4,2.9,35.9,9.6s5.1,6.2,5.1,6.6c.2.9-.2,1.8,0,2.7s.9,0,1,1c.5,3.7-.3,9.8-1,13.5-2,9.5-5.8,18.3-9,28-3.7,11.1-6,19.5-9.9,30.9-3.7,10.7-7.3,20.3-10.8,30.5-7.2,21-12.3,44.4-30.9,58.2-18.1,13.4-41.2,15.5-63.9,16.3h-69.4l-28.6,88.3h-105.6,0ZM294.2,305h83.8c.2,0,.8-.5,1.1-.6.9-3.4,1.7-7.8,3-11s3-5.3,3.3-6.9c3.1-14.2,9.4-29.1,13.9-43.2s4-13.7,7-21.3,1.4-5.5,2.2-6l92-.2c15.7-2.3,31.8-4.7,44.1-15.4,15.8-13.7,21.9-41.6,27.7-58.6,6-17.6,11.1-33.2,17.2-50.9,2.8-8.2,6.5-17.4,8.9-26.3s3.7-11.5,0-16.5c-6.4-9-21.3-9.8-31.4-10.9l-181.7.2-5.3,15.7c-27.1,78.9-55.1,162.7-83.8,245.1-.4,1.2-.7,3.6-1.2,4.8s-1.4.4-.8,2h0Z"/>
  <path class="st3" d="M342.9,32.1c3.3,1.3,9.5,4.9,11.2,8.4s.7,2.5,1,4.1.9.3.9.7c.4,1.6.2,11.8,0,13.8-1.3,9.6-4.9,18.8-7.9,28.1-5.1,16-10,31.2-15.3,47.1-3.6,11.1-8,21.9-11.7,33.9s-7.3,22.7-11.2,34.8c-3.4,10.3-8.2,22.9-11.9,34.7s-3.5,10.9-5.7,17.4c-7.1,21-15.1,42.7-39.2,51.5-8.1,2.9-16,3.6-24.5,4.8H70.2c-9-.9-17.4-2.3-25.8-5.8-1.5-.6-7.3-3.6-8.7-5.3-3.4-4.1-6.8-10-7.5-15.6s1-9.1,1.9-13.9c2-10.8,6.8-22.5,10.1-32.7,5-15.7,9.9-32.4,15-48.2,6-18.3,12.2-34.6,18-53.6s11-35.5,16.9-52.7c11.9-34.4,36.7-49.6,72.3-54.9,51.7.7,104.9-2.6,156.5-.5s17.1,1.3,24,4.1v-.2ZM341,43.1c-4.9-3-10.1-3.5-15.4-5-56-1.5-112.5-1.7-168.4,0-13.7,2.6-26.2,7.9-36.8,16.8-19.6,16.2-23.8,42.4-31.1,64.9s-10.7,31.8-15.7,46.8c-3.6,10.8-6.9,20.7-10.2,30.7-5,15.5-9.2,30-14.1,44.9-2.5,7.5-5.2,14.7-7.1,21.7s-3.6,12.4-2.9,18.8.7,3.6,1,4.7.8.3.9.7c2.3,8.5,14.1,11.7,21.9,13.5,58.3.8,116.8.8,175.2,0,3-1.3,6.5-1.6,9.5-2.5,21.9-6.8,29.4-28.2,35.4-46.3s10.2-30.2,15.2-45.2,8.5-26.7,13.4-41.4c4.2-12.6,7.9-23.8,12.1-36.4,6.7-20.1,14.3-41.3,20.5-62,.4-1.4,1.9-4,2.2-5,1.1-4.9.8-11.7-1.5-15.8s-2.7-3.1-3.8-3.8h-.3Z"/>
  <rect class="st1" x="320.6" y="409.6" width=".5" height="1"/>
  <path class="st1" d="M641.2,428.8v-70.8l1-1.4c-1.5-.4-.9-1.3-1-2.6h26.6c5.2,0,12.5-.6,17.3,0s3.9,3.3,5.4,2.4.3-1.2.8-1.3,4.7.4,5.2.4c4.7.8,11.2,5.4,14.2,8.9s2.1.6,1.4,1.6-1.4-.3-.9,1h1.9l.9,7.4c2.4,1.1.3,1.2,0,1.4-.9,1.3.8,2.7.8,3.5s-.9.2-1,.6c-.5,2-.5,5.4-1,7.5s-3.9,5-4.3,5.3-1.4,0-1.9.6-.7,1.8-1,2c-.7.4-2.8,0-4.8,1.2s-1.6,2.6-3.2,2.3c-.5.5,2,3.8,2.6,4.6s1.4.2.7,1.1-1.2-.3-.9.7c.3.6,1.3.6,1.7.9,2.8,2.4,13.3,17,15,20.4s-.6,1.8,1.9,2v1.4c-.3.3-2.7-1-3.1-1h-10.8l.2-2.4c-1.5,0-1.9,1.9-3.1,2.2s-5.1.4-5.7.1-.7-1.5-1-1.9c-3.7-5-7.5-10.6-11.2-15.8s-3.6-6.3-6.2-8.9c-5.3-.7-10.8.2-16.2-.1v2.4h-1.9v1.4h1.4v23h-20.2.3ZM684.4,367.9l1-.5c-.9.4-2.4-1-2.6-1h-20.4c-.4,3.8.5,8.6,0,12.3s-.9,1.7-1,2.8c-.3,2.4-.7,7.1,2.2,7.5s14,.3,18.3,0,1.2.2,1.2-1.4c2.9-.1,2.6-.9,4.7-1.9s1.6,0,2.2-.5,2.1-3.1,2.2-3.3c0-.3,1-4,1.1-4.2,0-.9-1.4-4.9-2-5.6-1.6-2.1-4.6-2.4-6.6-3.4s0-.8,0-.8h-.2Z"/>
  <path class="st0" d="M547.1,303.1l90.3-264.9h73.9c0,.6-.2,1.5,0,2.1,6.8,24.2,14.2,49.3,21.1,74.8,3.9,14.4,9.3,29.7,12.9,45.6,0,.2,1.7.9,1,2.7h1.7c0-1,.8-1.3,1.2-1.9,8.1-14.6,22-27.8,33.2-40.3,24.6-27.5,49.9-55.1,74.7-83.2h84.2c0,1,.2,2.1,0,3s-.8.3-.9.7c-1.3,4-1.8,7.8-3.4,11.3-3,6.6-4.7,14.1-6.8,20.7-22,69.7-45.7,138.7-67.8,209.7-2.8,5.6-4.1,11.6-6,17.5s-.2,1.3,0,2h-77.8l45.6-143-116.9,127.7-1.2-.3c-.5-3.4-1.9-6.7-2.9-10s-.6-3.5-1-4.7c-4.3-14.6-9.4-29.3-13.8-43.8-5.5-18.1-10.9-36-16.3-53.7s-2.1-6.6-2-10l-1.2-.2-45.8,138.2h-75.9Z"/>
  <path class="st0" d="M294.2,305c-.6-1.7.8-1.9.8-2,.5-1.2.8-3.6,1.2-4.8,28.8-82.4,56.7-166.2,83.8-245.1l5.3-15.7,181.7-.2c10,1.1,25,1.8,31.4,10.9s1.3,10.9,0,16.5c-2.3,8.9-6.1,18.1-8.9,26.3-6,17.7-11.2,33.2-17.2,50.9-5.8,17-11.9,45-27.7,58.6-12.4,10.7-28.4,13.2-44.1,15.4l-92,.2c-.8.5-1.7,4.8-2.2,6-2.9,7.6-4.6,14.1-7,21.3-4.5,14.1-10.8,29-13.9,43.2s-2.8,5.5-3.3,6.9c-1.2,3.2-2.1,7.6-3,11-.3,0-.9.6-1.1.6h-83.8.1ZM509.2,92.8h-56.9l-24.2,69,.7,1.1h57.4s23-70.1,23-70.1Z"/>
  <path class="st0" d="M341,43.1c1.2.7,3.2,2.6,3.8,3.8,2.4,4.1,2.6,11,1.5,15.8-1.1,4.8-1.7,3.6-2.2,5-6.3,20.7-13.8,41.9-20.5,62-4.2,12.6-7.9,23.8-12.1,36.4-4.9,14.7-8.6,27-13.4,41.4s-9.9,29.4-15.2,45.2-13.5,39.5-35.4,46.3-6.5,1.2-9.5,2.5c-58.3.8-116.8.8-175.2,0-7.8-1.9-19.6-5-21.9-13.5s-.8-.3-.9-.7c-.3-1.1-.9-3.6-1-4.7-.7-6.3,1.3-12.8,2.9-18.8s4.6-14.2,7.1-21.7c4.9-14.8,9.1-29.4,14.1-44.9s6.6-19.9,10.2-30.7c5-15.1,10.5-31,15.7-46.8,7.4-22.5,11.6-48.6,31.1-64.9s23.1-14.2,36.8-16.8c55.9-1.7,112.5-1.5,168.4,0,5.4,1.4,10.6,1.9,15.4,5h.3ZM251.9,94.3h-65.8c0,1-.6,1.7-.9,2.7-3.4,10.1-8.1,22.7-11.1,33.9s-10.9,27.1-13.9,40.8-8.8,20.3-11,29c-3.9,15.5-11.2,30.9-15,45.4-3.8,14.5-1.6,2.6-.6,4.2l65.5-1.1,52.9-155h-.1Z"/>
  <path class="st1" d="M683,387.6c0,1.7.3,1.3-1.2,1.4-4.3.3-14.2.6-18.3,0s-2.5-5.1-2.2-7.5.9-1.7,1-2.8c.5-3.7-.4-8.5,0-12.3h20.4c.2,0,1.8,1.3,2.6,1l-1,.5c-.4-.3-9,0-10.6,0,.3-1.4-.7-.9-1.7-1h-8.6c-.5,0-.2.6-.3,1-.8,6.1.6,13.6,0,19.9,0,.6.8.2,1,.3,1.8.7,1.4,0,1.9,0,3.8,0,8.2-.2,12,0s1.9,1,2.9.5v-1h2.1Z"/>
  <path class="st3" d="M509.2,92.8l-23,70.1h-57.4l-.7-1.1,24.2-69h56.9ZM495.3,103.4h-36l-2,7.3c-4.9,13-10.1,26-14.3,39.6s-.2,2.1-.5,3l1.3.3c10.5-1.2,21.7.5,32.1-.3s2.2-.1,2.5-.6c0,0,16.9-49.3,16.9-49.3Z"/>
  <path class="st3" d="M251.9,94.3l-52.9,155-65.5,1.1c-1.1-1.6.3-3.1.6-4.2,3.8-14.4,11.1-29.9,15-45.4,2.2-8.7,9.2-20.7,11-29,3-13.7,10.4-27.7,13.9-40.8s7.7-23.8,11.1-33.9,1-1.7.9-2.7h65.9ZM147.3,239.7h44.2c.7-1.2.6-2.9,1-4,1-3,2.8-6.3,3.8-9.4,9.1-26.7,18.5-54.1,26.9-78.7s8.4-24.9,12.3-37.1,2-4,1.7-6.2c-4.3,1.3-8.9,0-13.2,0-10.2-.2-20.3.2-30.5,0l-46.1,135.4h0Z"/>
  <path class="st1" d="M663.3,367.9c0-.3-.2-1,.3-1h8.6c2.9,0,1.9-.5,1.7,1h-10.6Z"/>
  <path class="st1" d="M681,387.6v1c-1,.5-2.4-.5-2.9-.5.5-.8,2-.5,2.9-.5Z"/>
  <path class="st1" d="M666.2,388c-.5,0,0,.7-1.9,0,.2-.7,1.7-.7,1.9,0Z"/>
  <path class="st2" d="M495.3,103.4l-16.9,49.3c-.3.5-1.9.6-2.5.6-10.4.8-21.6-.9-32.1.3l-1.3-.3c.4-.9.3-2.2.5-3,4.2-13.6,9.5-26.6,14.3-39.6l2-7.3h36ZM478.7,113h-10.1c-1.5,2.6-2.5,5.7-3.5,8.5-2.1,6-4,12-5.9,18.1s-1.5,2.9-1.4,4.6h10.3c1.5-.7.9-2.1,1.2-3,1.5-3.9,2.7-7.7,3.9-11.5s3-8.1,4.7-12.2.5-2.4,1.4-3.4l-.7-1.1h.1Z"/>
  <path class="st2" d="M147.3,239.7l46.1-135.4c10.2.2,20.3-.2,30.5,0s8.9,1.3,13.2,0c.4,2.3-1,4.2-1.7,6.2-3.8,12.2-7.7,23.7-12.3,37.1-8.4,24.6-17.8,52-26.9,78.7s-2.8,6.3-3.8,9.4-.3,2.8-1,4h-44.2.1ZM222.2,114.4h-20.2l-39.8,116.2h20.2s39.8-116.2,39.8-116.2Z"/>
</svg>